<mxfile host="app.diagrams.net" modified="2023-09-13T09:10:21.209Z" agent="Mozilla/5.0 (Windows NT 10.0; Win64; x64; rv:109.0) Gecko/20100101 Firefox/117.0" etag="h6RHRdEUl_HnEwukT-g5" version="21.7.4" type="github">
  <diagram name="第 1 页" id="AqV8WggRTAbb-ljKE51d">
    <mxGraphModel dx="1434" dy="746" grid="1" gridSize="16" guides="1" tooltips="1" connect="1" arrows="1" fold="1" page="1" pageScale="1" pageWidth="827" pageHeight="1169" background="none" math="0" shadow="0">
      <root>
        <mxCell id="0" />
        <mxCell id="1" parent="0" />
      </root>
    </mxGraphModel>
  </diagram>
</mxfile>
